<?xml version="1.0" encoding="iso-8859-1"?>
<!-- Generator: Adobe Illustrator 19.0.0, SVG Export Plug-In . SVG Version: 6.00 Build 0)  -->
<svg version="1.1" id="Capa_1" xmlns="http://www.w3.org/2000/svg" xmlns:xlink="http://www.w3.org/1999/xlink" x="0px" y="0px"
	 viewBox="0 0 512 512" style="enable-background:new 0 0 512 512;" xml:space="preserve">
<g>
	<g>
		<path style="fill:#D1D4D1;" d="M238.345,454.356v39.989c-0.029,9.739-7.916,17.627-17.655,17.655h-8.828
			c-9.739-0.029-17.627-7.916-17.655-17.655v-52.966L238.345,454.356z"/>
		<path style="fill:#D1D4D1;" d="M317.793,441.379v52.966c-0.029,9.739-7.916,17.627-17.655,17.655h-8.828
			c-9.739-0.029-17.627-7.916-17.655-17.655v-39.989L317.793,441.379z"/>
	</g>
	<path style="fill:#AF8066;" d="M512,0c-96.75,9.092-141.506,69.738-149.804,102.753l-0.088,0.088
		c-9.586-8.969-20.407-16.519-32.132-22.422c0.458-10.17,4.419-19.869,11.211-27.453c-17.969-5.153-37.307,0.28-49.964,14.036
		c-1.102,1.118-2.106,2.329-3.001,3.619c-2.515-1.227-4.696-3.044-6.357-5.297h-0.088c-8.651-11.123-2.383-30.014-2.383-30.014
		c-18.456,0.035-35.001,11.391-41.667,28.601c-0.99,2.171-1.816,4.414-2.471,6.709c-5.501-0.056-10.902-1.482-15.713-4.149
		c-12.049-7.708-21.853-18.457-28.425-31.161C177.79,46.827,173.036,65.42,179.2,81.92c-10.273,5.888-19.814,12.97-28.425,21.098
		l-0.706,0.706C142.389,70.974,97.722,9.181,0,0c0,105.578,66.207,130.207,118.465,141.241l0.442,0.265
		c-1.588,2.295-2.913,4.767-4.237,7.15c-5.77,10.9-9.566,22.735-11.211,34.957c-1.765,12.623-1.5,25.512-3.884,38.135
		c-1.132,6.808-3.337,13.392-6.532,19.509c-5.631,9.105-9.662,19.107-11.918,29.572c-1.454,9.045-1.986,18.213-1.588,27.366
		c-0.968,25.908,6.977,51.364,22.511,72.121c13.184,14.632,29.681,25.892,48.11,32.839l211.773,0.441
		c18.298-6.791,34.682-17.906,47.756-32.397c0.214-0.311,0.45-0.606,0.707-0.883c12.087-15.829,19.379-34.794,21.01-54.643
		c0.617-5.826,0.971-11.652,1.059-17.479c0.398-9.152-0.134-18.321-1.588-27.366c-2.162-10.452-6.103-20.455-11.653-29.572
		c-3.169-6.12-5.344-12.706-6.444-19.509c-2.383-12.623-2.119-25.512-3.795-38.135c-1.615-12.218-5.381-24.053-11.123-34.957
		c-1.325-2.472-2.738-4.943-4.237-7.415C445.881,130.207,512,105.49,512,0z"/>
	<ellipse style="fill:#FDD7AD;" cx="256" cy="401.655" rx="105.931" ry="75.034"/>
	<g>
		<circle style="fill:#7F6E5D;" cx="211.862" cy="388.414" r="17.655"/>
		<circle style="fill:#7F6E5D;" cx="300.138" cy="388.414" r="17.655"/>
	</g>
	<path style="fill:#FDD7AD;" d="M124.205,133.297c-1.501,2.207-3.002,4.414-4.414,6.709c-0.327,0.48-0.622,0.982-0.884,1.501
		l-0.442-0.265C66.207,130.207,0,105.578,0,0c0,0,101.429,62.852,123.939,133.12L124.205,133.297z"/>
	<g>
		<path style="fill:#7F5B53;" d="M150.069,103.724c-1.942,1.854-3.972,3.796-5.825,5.826c-6.835,7.054-13.205,14.543-19.069,22.422
			c-0.352,0.441-0.617,0.883-0.97,1.324l-0.265-0.177C101.429,62.852,0,0,0,0C97.722,9.181,142.389,70.974,150.069,103.724z"/>
		<path style="fill:#7F5B53;" d="M512,0c0,0-101.252,62.764-123.851,132.943c-5.838-8.255-12.27-16.073-19.244-23.393
			c-2.207-2.383-4.414-4.59-6.797-6.709l0.088-0.088C370.494,69.738,415.25,9.092,512,0z"/>
	</g>
	<path style="fill:#FDD7AD;" d="M512,0c0,105.49-66.119,130.207-118.377,141.241c-1.678-2.825-3.532-5.561-5.474-8.298
		C410.748,62.764,512,0,512,0z"/>
	<path style="fill:#FFFFFF;" d="M229.517,238.345c0,1.942-0.088,3.884-0.265,5.738h-0.265c-6.176-3.744-13.258-5.729-20.48-5.738
		c-11.758-0.244-22.908,5.215-29.926,14.654l-1.059,0.265c-1.08-4.899-1.613-9.902-1.59-14.919
		c0-24.364,12.006-44.138,26.836-44.138C217.512,194.207,229.517,213.981,229.517,238.345z"/>
	<g>
		<path style="fill:#2C2F38;" d="M229.252,244.083c-1.677,21.628-12.888,38.4-26.483,38.4c-11.652,0-21.539-12.182-25.247-29.219
			l1.059-0.265c7.017-9.438,18.167-14.898,29.926-14.654c7.222,0.009,14.304,1.994,20.479,5.738H229.252z"/>
		<path style="fill:#2C2F38;" d="M334.477,253.263c-3.708,17.037-13.594,29.219-25.247,29.219c-13.594,0-24.806-16.772-26.483-38.4
			h0.265c6.176-3.744,13.258-5.729,20.48-5.738c11.758-0.244,22.908,5.215,29.926,14.654L334.477,253.263z"/>
	</g>
	<path style="fill:#FFFFFF;" d="M336.067,238.345c0.024,5.016-0.51,10.02-1.59,14.919l-1.059-0.265
		c-7.017-9.438-18.167-14.898-29.926-14.654c-7.222,0.009-14.304,1.994-20.479,5.738h-0.265c-0.177-1.854-0.265-3.796-0.265-5.738
		c0-24.364,12.006-44.138,26.748-44.138C324.061,194.207,336.067,213.981,336.067,238.345z"/>
</g>
<g>
</g>
<g>
</g>
<g>
</g>
<g>
</g>
<g>
</g>
<g>
</g>
<g>
</g>
<g>
</g>
<g>
</g>
<g>
</g>
<g>
</g>
<g>
</g>
<g>
</g>
<g>
</g>
<g>
</g>
</svg>
