<svg version="1.1" id="Capa_1" xmlns="http://www.w3.org/2000/svg" xmlns:xlink="http://www.w3.org/1999/xlink" x="0px" y="0px"
	 viewBox="0 0 155.301 155.301" style="enable-background:new 0 0 155.301 155.301;" xml:space="preserve">
<g>
	<circle style="fill:#98E2ED;" cx="77.651" cy="77.65" r="77.65"/>
	<g>
		<g>
			<path style="fill:#6C90A3;" d="M107.078,123.863c-0.037-0.12-0.06-0.232-0.088-0.346c-1.556,0.913-3.044,1.155-4.432,0.707
				c-1.936-0.625-3.702-2.563-5.081-5.523c3.124-4.208,4.974-9.418,4.974-15.062c0-1.997-0.238-3.936-0.675-5.799
				c-1.67,2.027-3.586,3.841-5.7,5.403c-0.007,3.018-1.966,10.051-11.721,12.351c-0.04,0.839-0.08,1.678-0.119,2.517
				c-0.091,1.944-1.261,3.442-3.215,3.398c-1.941-0.047-3.023-1.62-3.023-3.567v0.45c0,1.828-1.943,3.306-3.772,3.346
				c-0.137,0.003-0.457,0.005-0.598,0.008c-1.826,0.046-3.479-1.36-3.564-3.186c-0.05-1.032-0.147-2.065-0.197-3.099
				c-8.981-2.352-11.056-8.822-11.186-11.919c-2.278-1.628-4.354-3.543-6.131-5.702c-0.438,1.864-0.276,3.803-0.276,5.799
				c0,6.413,1.724,12.265,6.724,16.723v17.838c0-2.147,3.256-3.575,6-3.575c2.744,0,5,1.427,6,3.575v-9.966
				c2,0.453,3.867,0.7,5.902,0.7c1.746,0,3.098-0.177,5.098-0.514v9.292c2-1.872,3.471-3.087,6-3.087c2.529,0,5,1.215,6,3.087
				v-15.798c0-0.299,0.934-0.605,1.231-0.919c1.646,3.063,3.901,5.063,6.326,5.846c0.729,0.236,1.554,0.353,2.312,0.353
				c1.449,0,2.976-0.435,4.44-1.284C107.792,125.532,107.395,124.877,107.078,123.863z"/>
			<path style="fill:#85A0B0;" d="M106.99,123.517c0.028,0.113,0.051,0.226,0.088,0.346c0.316,1.015,0.754,1.669,1.27,2.047
				c2.59,1.902,7.196-3.319,8.807-6.74C117.155,119.17,105.65,117.814,106.99,123.517z"/>
			<path style="fill:#FFD6BC;" d="M64.72,134.626c-2.745,0-5.128,1.427-6.511,3.575c-0.777,1.21-1.211,2.648-1.211,4.194v1.799h15
				v-1.799c0-1.546-0.211-2.983-0.99-4.194C69.626,136.053,67.464,134.626,64.72,134.626z"/>
			<path style="fill:#FFD6BC;" d="M88.445,134.626c-2.529,0-5.108,1.215-6.528,3.087c-0.986,1.303-1.918,2.921-1.918,4.682v1.799h16
				v-1.799c0-1.76-0.484-3.378-1.471-4.682C93.108,135.841,90.976,134.626,88.445,134.626z"/>
			<path style="fill:#85A0B0;" d="M58.656,103.542c-0.004-0.109-0.007-0.215-0.007-0.316c0-9.417,11.268-13.584,18.675-13.584
				c7.402,0,18.674,4.167,18.674,13.584c0,0.006,0,0.012,0,0.017c2-1.562,4.069-3.376,5.737-5.403
				c4.534-5.506,7.276-12.559,7.276-20.247c0-11.689-6.284-21.903-15.666-27.451c1.599-2.346,5.162-7.863,6.58-12.514
				c1.859-6.086,1.984-22.776-2.934-24.248C92.27,11.968,82.117,27.27,83.648,46.381c-1.633-0.339-3.313-0.549-5.027-0.627
				c0.789-0.707,1.702-1.28,2.656-1.893c0.483-0.313,0.302-0.894-0.336-0.775c-1.577,0.293-2.875,2.108-3.758,3.108
				c-0.008,0-0.017,0-0.026,0c-0.274,0-0.546-0.225-0.818-0.218c0.479-1.511,1.029-3.049,1.887-4.44
				c0.273-0.443-0.298-1.039-0.699-0.67c-1.442,1.323-2.206,3.04-2.331,4.948c-0.111,0.007-0.223,0.002-0.333,0.01
				c-0.479-2.366-0.183-4.485,0.431-6.897c0.195-0.763-0.765-1.291-1.249-0.622c-1.603,2.224-1.805,5.156-0.841,7.667
				c-1.104,0.137-2.192,0.329-3.26,0.576c1.73-18.233-7.225-33.047-11.868-31.908c-4.984,1.223-5.7,17.897-4.149,24.069
				c1.106,4.407,4.039,9.664,5.627,12.312c-8.599,5.709-14.271,15.476-14.271,26.572c0,7.688,2.723,14.741,7.256,20.247
				C54.316,99.999,56.377,101.914,58.656,103.542z M95.711,81.228c0.129,3.583-2.672,6.592-6.257,6.72
				c-3.583,0.127-6.591-2.674-6.718-6.257c-0.129-3.584,2.672-6.592,6.254-6.719C92.574,74.843,95.582,77.644,95.711,81.228z
				 M93.462,24.245c2.127,0.811,1.361,8.3,0.688,12.069c-0.673,3.768-5.447,12.337-5.447,12.337l-1.736-1.102
				C86.906,41.367,91.335,23.434,93.462,24.245z M59.765,37.686c-0.483-3.797-0.871-11.315,1.294-12.02
				c2.164-0.703,5.688,17.43,5.317,23.602l-1.79,1.013C64.586,50.281,60.247,41.484,59.765,37.686z M64.459,74.972
				c3.584,0.127,6.384,3.135,6.255,6.719c-0.127,3.582-3.136,6.384-6.718,6.257c-3.585-0.128-6.386-3.137-6.257-6.72
				C57.868,77.644,60.875,74.843,64.459,74.972z"/>
			<path style="fill:#FFFFFF;" d="M82.737,81.691c0.127,3.582,3.135,6.384,6.718,6.257c3.585-0.128,6.386-3.137,6.257-6.72
				c-0.129-3.584-3.137-6.385-6.721-6.256C85.408,75.099,82.608,78.107,82.737,81.691z M91.398,81.679
				c-0.014,0.413-0.146,0.792-0.348,1.122c-0.373-1.026-1.266-1.895-2.62-1.942c-0.714-0.025-1.258,0.184-1.646,0.529
				c0.111-1.217,1.146-2.152,2.381-2.107C90.443,79.326,91.443,80.4,91.398,81.679z"/>
			<path style="fill:#353A42;" d="M86.783,81.389c0.389-0.345,0.933-0.555,1.646-0.529c1.354,0.047,2.247,0.916,2.62,1.942
				c0.201-0.33,0.334-0.709,0.348-1.122c0.045-1.279-0.955-2.353-2.233-2.398C87.929,79.237,86.895,80.171,86.783,81.389z"/>
			<path style="fill:#FFFFFF;" d="M63.996,87.948c3.582,0.127,6.591-2.674,6.718-6.257c0.129-3.584-2.671-6.592-6.255-6.719
				c-3.584-0.129-6.591,2.672-6.72,6.256C57.611,84.811,60.411,87.819,63.996,87.948z M64.285,79.281
				c1.236-0.044,2.27,0.89,2.382,2.107c-0.389-0.345-0.933-0.555-1.646-0.529c-1.354,0.047-2.247,0.916-2.62,1.942
				c-0.202-0.33-0.334-0.709-0.349-1.122C62.008,80.4,63.008,79.326,64.285,79.281z"/>
			<path style="fill:#353A42;" d="M65.021,80.859c0.714-0.025,1.258,0.184,1.646,0.529c-0.112-1.217-1.146-2.152-2.382-2.107
				c-1.277,0.044-2.277,1.119-2.233,2.398c0.015,0.413,0.146,0.792,0.349,1.122C62.774,81.775,63.666,80.906,65.021,80.859z"/>
			<path style="fill:#FFFFFF;" d="M77.363,116.341c-2.943,0-5.436-0.327-7.548-0.88c0.049,1.034,0.097,2.067,0.146,3.099
				c0.087,1.826,1.633,3.232,3.459,3.186c0.14-0.003,0.671-0.005,0.808-0.008c1.828-0.04,3.772-1.518,3.772-3.346v-0.45
				c0,1.948,1.082,3.521,3.023,3.567c1.954,0.044,3.334-1.455,3.426-3.398c0.039-0.838-0.027-1.677,0.013-2.517
				C82.469,116.064,80.055,116.341,77.363,116.341z"/>
			<path style="fill:#B6C6D0;" d="M77.324,89.643c-7.406,0-18.696,4.167-18.696,13.584c0,0.101,0.014,0.207,0.018,0.316
				c0.13,3.097,2.183,9.566,11.165,11.919c2.111,0.553,4.606,0.88,7.55,0.88c2.692,0,4.963-0.277,6.954-0.747
				c9.756-2.3,11.684-9.333,11.684-12.351c0-0.005,0-0.011,0-0.017C95.998,93.81,84.727,89.643,77.324,89.643z M87.558,104.832
				c0.478,2.943-5.04,4.978-5.04,4.978C81.556,103.57,87.076,101.89,87.558,104.832z M66.756,104.832
				c0.479-2.942,6.001-1.263,5.04,4.978C71.796,109.81,66.278,107.775,66.756,104.832z"/>
			<path style="fill:#3E494F;" d="M82.518,109.81c0,0,5.518-2.035,5.04-4.978C87.076,101.89,81.556,103.57,82.518,109.81z"/>
			<path style="fill:#3E494F;" d="M66.756,104.832c-0.479,2.943,5.04,4.978,5.04,4.978C72.757,103.57,67.236,101.89,66.756,104.832z
				"/>
			<path style="fill:#FFD6BC;" d="M66.376,49.268c0.37-6.172-3.153-24.305-5.317-23.602c-2.165,0.704-1.777,8.222-1.294,12.02
				c0.482,3.798,4.821,12.595,4.821,12.595L66.376,49.268z"/>
			<path style="fill:#FFD6BC;" d="M88.703,48.651c0,0,4.774-8.569,5.447-12.337c0.673-3.769,1.438-11.258-0.688-12.069
				c-2.127-0.811-6.556,17.122-6.495,23.304L88.703,48.651z"/>
		</g>
		<path style="opacity:0.3;fill:#FFFFFF;" d="M106.99,123.517c-1.557,0.913-3.046,1.154-4.432,0.707
			c-1.936-0.625-3.702-2.563-5.081-5.523c3.124-4.208,4.974-9.418,4.974-15.062c0-1.997-0.238-3.936-0.675-5.799
			c4.532-5.506,7.256-12.559,7.256-20.247c0-11.689-6.295-21.903-15.677-27.451c1.6-2.346,5.156-7.863,6.576-12.514
			c1.858-6.086,1.98-22.776-2.938-24.248c-4.723-1.413-14.875,13.889-13.344,33.001c-1.634-0.339-3.314-0.549-5.03-0.627
			c0.79-0.707,1.702-1.28,2.656-1.893c0.483-0.313,0.303-0.999-0.335-0.88c-1.561,0.29-2.847,1.6-3.729,2.96v82.992
			c1.726-0.004,3.414-0.18,5.043-0.513v9.279c-0.652,1.137-1.554,2.654-1.554,4.058l-0.026,1.426l15.598,0.137v-1.241
			c0-2.066-0.323-2.985-1.639-4.377v-15.787c0.312-0.299,0.615-0.605,0.912-0.919c1.647,3.063,3.743,5.063,6.168,5.845
			c0.729,0.236,1.475,0.353,2.232,0.353c1.449,0,2.936-0.435,4.4-1.284c2.59,1.902,7.196-3.319,8.807-6.74
			C117.155,119.17,105.649,117.814,106.99,123.517z"/>
		<path style="fill:#C6772B;" d="M77.213,43.472c0.289-0.678,0.614-1.344,1.012-1.988c0.273-0.442-0.298-1.012-0.699-0.644
			c-0.11,0.102-0.211,0.21-0.313,0.315V43.472z"/>
	</g>
</g>
<g>
</g>
<g>
</g>
<g>
</g>
<g>
</g>
<g>
</g>
<g>
</g>
<g>
</g>
<g>
</g>
<g>
</g>
<g>
</g>
<g>
</g>
<g>
</g>
<g>
</g>
<g>
</g>
<g>
</g>
</svg>
